<svg width="2457" height="598" viewBox="0 0 2457 598" fill="none" xmlns="http://www.w3.org/2000/svg">
<!-- <path d="M249.576 366.187C246.124 360.105 246.124 354.269 249.576 348.68L308.755 245.608C312.208 239.855 317.221 236.978 323.797 236.978H371.88C374.017 236.978 375.661 237.964 376.812 239.937C377.963 241.91 377.963 243.8 376.812 245.608L312.701 357.064L376.812 475.423C377.963 477.396 377.963 479.45 376.812 481.587C375.826 483.56 374.182 484.546 371.88 484.546H323.797C317.221 484.546 312.208 481.505 308.755 475.423L249.576 366.187Z" fill="#EA2121"/> -->
<!-- <path d="M732.591 125.978C739.331 125.978 744.427 128.855 747.879 134.608L806.812 237.68C810.264 243.269 810.264 249.105 806.812 255.187L747.879 364.423C744.427 370.505 739.331 373.546 732.591 373.546H684.754C682.452 373.546 680.726 372.56 679.576 370.587C678.425 368.45 678.425 366.396 679.576 364.423L743.687 246.064L679.576 134.608C678.425 132.965 678.425 131.156 679.576 129.184C680.726 127.047 682.452 125.978 684.754 125.978H732.591Z" fill="#EA2121"/> -->
<path fill-rule="evenodd" clip-rule="evenodd" d="M375.221 354.934L600.636 3.46342C600.636 3.46342 587.309 39.1873 572.207 83.616C548.714 152.727 520.51 243.28 532.311 252.44C544.111 261.601 570.57 276.051 615.892 260.111L375.221 354.934Z" fill="#EA2121"/>
<path d="M594.04 20.1262C586.505 39.8278 580.301 58.0157 575.216 74.7641C581.336 57.1737 587.69 38.8784 594.04 20.1262Z" fill="#600202"/>
<path d="M559.553 240.4C528.576 232.937 538.968 194.156 575.216 74.7641C547.36 154.834 524.368 220.3 528.792 247.785C538.725 282.635 593.336 275.087 682.566 233.132L648.732 240.513C648.732 240.513 590.53 247.863 559.553 240.4Z" fill="#600202"/>
<path fill-rule="evenodd" clip-rule="evenodd" d="M683.779 243.477L458.363 594.948C458.363 594.948 471.69 559.224 486.793 514.795C510.286 445.685 538.489 355.131 526.689 345.971C514.888 336.811 488.43 322.36 443.107 338.301L683.779 243.477Z" fill="#EB2121"/>
<path d="M464.958 579.231C472.494 559.345 478.697 540.987 483.783 524.082C477.663 541.837 471.308 560.304 464.958 579.231Z" fill="#600202"/>
<path d="M499.448 356.899C530.425 364.431 520.032 403.575 483.783 524.082C511.639 443.264 534.633 377.186 530.208 349.444C520.276 314.268 465.665 321.887 376.435 364.236L410.269 356.786C410.269 356.786 468.471 349.366 499.448 356.899Z" fill="#600202"/>
<path d="M611.371 482L817.621 107.903L1021.19 482H938.739L906.781 421.038H726.581L694.086 482H611.371ZM762.299 354.974H872.138L817.621 251.043L762.299 354.974ZM1048.31 482V118.914H1119.75V262.054H1224.21V118.914H1295.65V482H1224.21V328.118H1119.75V482H1048.31ZM1323.04 482L1529.29 107.903L1732.86 482H1650.41L1618.45 421.038H1438.25L1405.76 482H1323.04ZM1473.97 354.974H1583.81L1529.29 251.043L1473.97 354.974ZM1733.66 373.235C1723.81 350.14 1718.89 325.88 1718.89 300.457C1718.89 275.034 1723.81 250.774 1733.66 227.679C1743.51 204.583 1756.76 184.71 1773.41 168.06C1790.06 151.409 1809.93 138.16 1833.03 128.313C1856.12 118.466 1880.38 113.543 1905.8 113.543C1929.08 113.543 1952.44 118.019 1975.9 126.971C1999.35 135.923 2020.93 150.514 2040.62 170.745L1989.59 218.011C1966.86 194.199 1938.93 182.293 1905.8 182.293C1873.22 182.293 1845.83 193.751 1823.63 216.668C1801.43 239.585 1790.33 267.514 1790.33 300.457C1790.33 333.4 1801.43 361.329 1823.63 384.246C1845.83 407.163 1873.22 418.621 1905.8 418.621C1938.93 418.621 1966.86 406.715 1989.59 382.903L2040.62 430.169C2020.93 450.4 1999.35 464.992 1975.9 473.943C1952.44 482.895 1929.08 487.371 1905.8 487.371C1880.38 487.371 1856.12 482.448 1833.03 472.601C1809.93 462.754 1790.06 449.505 1773.41 432.854C1756.76 416.204 1743.51 396.331 1733.66 373.235ZM2082.25 482V118.914H2153.68V277.361L2332.54 118.914H2426L2235.59 287.298L2318.04 372.43C2349.73 405.193 2393.05 421.575 2448.02 421.575V487.371C2432.62 487.371 2419.37 487.013 2408.27 486.297C2397.35 485.581 2385.09 483.969 2371.48 481.463C2357.87 478.956 2345.61 475.376 2334.69 470.721C2323.77 466.066 2312.22 459.62 2300.04 451.385C2288.05 443.149 2276.5 433.213 2265.4 421.575L2181.88 335.101L2153.68 359.808V482H2082.25Z" fill="white"/>
<path d="M33.0322 482V118.914H104.468V482H33.0322ZM148.511 184.979V118.914H390.479V184.979H305.347V482H233.643V184.979H148.511Z" fill="white"/>
</svg>
